# xmcd
#
# Track frame offsets:
#	150
#	16170
#	31830
#	51150
#	69477
#	91222
#
# Disc length: 2428 seconds
#
# Revision: 1
# Processed by: cddbd v1.4b42PL0 Copyright (c) Steve Scherf et al.
# Submitted via: audiograbber 1.80
#
DISCID=3f097a06
DTITLE=Afterglow - Vision
DYEAR=1900
DGENRE=
TTITLE0=Lost in the Funhouse
TTITLE1=Stay So Young
TTITLE2=Slow Song
TTITLE3=Vision
TTITLE4=Fall Behind
TTITLE5=Lost in the Funhouse-Stay So Young-Slow Song-Vision-Fall Behind
EXTD=
EXTT0=
EXTT1=
EXTT2=
EXTT3=
EXTT4=
EXTT5=
PLAYORDER=
